<svg width="32" height="32" viewBox="0 0 32 32" fill="none" xmlns="http://www.w3.org/2000/svg">
<path fill-rule="evenodd" clip-rule="evenodd" d="M16.0003 5.33317C10.1093 5.33317 5.33366 10.1088 5.33366 15.9998C5.33366 21.8909 10.1093 26.6665 16.0003 26.6665C21.8914 26.6665 26.667 21.8909 26.667 15.9998C26.667 10.1088 21.8914 5.33317 16.0003 5.33317ZM2.66699 15.9998C2.66699 8.63604 8.63653 2.6665 16.0003 2.6665C23.3641 2.6665 29.3337 8.63604 29.3337 15.9998C29.3337 23.3636 23.3641 29.3332 16.0003 29.3332C8.63653 29.3332 2.66699 23.3636 2.66699 15.9998Z" fill="white"/>
<path fill-rule="evenodd" clip-rule="evenodd" d="M9.33301 15.9998C9.33301 15.2635 9.92996 14.6665 10.6663 14.6665H21.333C22.0694 14.6665 22.6663 15.2635 22.6663 15.9998C22.6663 16.7362 22.0694 17.3332 21.333 17.3332H10.6663C9.92996 17.3332 9.33301 16.7362 9.33301 15.9998Z" fill="white"/>
<path fill-rule="evenodd" clip-rule="evenodd" d="M16.0003 9.3335C16.7367 9.3335 17.3337 9.93045 17.3337 10.6668L17.3337 21.3335C17.3337 22.0699 16.7367 22.6668 16.0003 22.6668C15.2639 22.6668 14.667 22.0699 14.667 21.3335L14.667 10.6668C14.667 9.93045 15.2639 9.3335 16.0003 9.3335Z" fill="white"/>
</svg>
