<svg width="32" height="32" viewBox="0 0 32 32" fill="none" xmlns="http://www.w3.org/2000/svg">
<path fill-rule="evenodd" clip-rule="evenodd" d="M16 5.33317C10.109 5.33317 5.33333 10.1088 5.33333 15.9998C5.33333 21.8909 10.109 26.6665 16 26.6665C21.891 26.6665 26.6667 21.8909 26.6667 15.9998C26.6667 10.1088 21.891 5.33317 16 5.33317ZM2.66666 15.9998C2.66666 8.63604 8.6362 2.6665 16 2.6665C23.3638 2.6665 29.3333 8.63604 29.3333 15.9998C29.3333 23.3636 23.3638 29.3332 16 29.3332C8.6362 29.3332 2.66666 23.3636 2.66666 15.9998Z" fill="#333333"/>
<path fill-rule="evenodd" clip-rule="evenodd" d="M9.33334 15.9998C9.33334 15.2635 9.93029 14.6665 10.6667 14.6665H21.3333C22.0697 14.6665 22.6667 15.2635 22.6667 15.9998C22.6667 16.7362 22.0697 17.3332 21.3333 17.3332H10.6667C9.93029 17.3332 9.33334 16.7362 9.33334 15.9998Z" fill="#333333"/>
<path fill-rule="evenodd" clip-rule="evenodd" d="M16 9.3335C16.7364 9.3335 17.3333 9.93045 17.3333 10.6668L17.3333 21.3335C17.3333 22.0699 16.7364 22.6668 16 22.6668C15.2636 22.6668 14.6667 22.0699 14.6667 21.3335L14.6667 10.6668C14.6667 9.93045 15.2636 9.3335 16 9.3335Z" fill="#333333"/>
</svg>
