<svg width="32" height="32" viewBox="0 0 32 32" fill="none" xmlns="http://www.w3.org/2000/svg">
<path fill-rule="evenodd" clip-rule="evenodd" d="M10.6667 22.6668C10.6667 21.9304 11.2636 21.3335 12 21.3335H20C20.7364 21.3335 21.3333 21.9304 21.3333 22.6668V24.0002C21.3333 26.9457 18.9455 29.3335 16 29.3335C13.0545 29.3335 10.6667 26.9457 10.6667 24.0002V22.6668ZM13.3333 24.0002C13.3333 25.4729 14.5272 26.6668 16 26.6668C17.4728 26.6668 18.6667 25.4729 18.6667 24.0002H13.3333Z" fill="white"/>
<path fill-rule="evenodd" clip-rule="evenodd" d="M16 5.33317C11.5817 5.33318 8 8.9149 8 13.3332V18.2964C8 18.887 7.76539 19.4534 7.34777 19.871L6.4215 18.9448L7.34776 19.871L6.66667 20.5521L6.66667 21.3332H25.3333V20.5521L24.6522 19.871C24.2346 19.4534 24 18.887 24 18.2964V13.3332C24 8.91489 20.4183 5.33316 16 5.33317ZM5.33333 13.3332C5.33333 7.44214 10.1089 2.66652 16 2.6665C21.891 2.66649 26.6667 7.44212 26.6667 13.3332V18.1142L27.219 18.6665C27.7191 19.1666 28 19.8449 28 20.5521V21.3332C28 22.806 26.8061 23.9999 25.3333 23.9999H6.66667C5.19391 23.9999 4 22.806 4 21.3332V20.5521C4 19.8449 4.28095 19.1666 4.78105 18.6665L5.63407 19.5195L4.78105 18.6665L5.33333 18.1142V13.3332Z" fill="white"/>
</svg>
