<svg width="24" height="24" viewBox="0 0 24 24" fill="none" xmlns="http://www.w3.org/2000/svg">
<path d="M0.666712 9.27235C1.03501 9.27235 1.33338 8.97399 1.33338 8.60569V5.19988C1.33338 3.06767 3.06775 1.33332 5.19998 1.33332H7.39416C7.76246 1.33332 8.06082 1.03496 8.06082 0.666658C8.06082 0.298358 7.76209 0 7.39378 0H5.19998C2.3328 0 0 2.33273 0 5.19993V8.60593C0 8.97404 0.298361 9.2724 0.666664 9.2724L0.666712 9.27235Z" fill="white"/>
<path d="M6.8486 8.60569C6.8486 8.23739 7.14696 7.93903 7.51526 7.93903C7.88356 7.93903 8.18192 8.23776 8.18192 8.60569V10.5452C8.18192 10.9135 7.88356 11.2118 7.51526 11.2118C7.14696 11.2118 6.8486 10.9135 6.8486 10.5452V8.60569Z" fill="white"/>
<path d="M17.1514 10.5452C17.1514 10.9135 16.853 11.2118 16.4847 11.2118C16.1168 11.2118 15.8181 10.9135 15.8181 10.5452V8.60569C15.8181 8.23739 16.1164 7.93903 16.4847 7.93903C16.853 7.93903 17.1514 8.23739 17.1514 8.60569V10.5452Z" fill="white"/>
<path d="M16.4714 16.1346C16.2108 15.874 15.7889 15.874 15.5287 16.1346C14.5864 17.077 13.333 17.5959 12.0002 17.5959C10.6671 17.5959 9.41411 17.077 8.47178 16.1346C8.21155 15.874 7.78911 15.874 7.52907 16.1346C7.26846 16.3949 7.26846 16.8171 7.52907 17.0773C8.72344 18.2717 10.3112 18.9293 12.0006 18.9293C13.6896 18.9293 15.2777 18.2714 16.4721 17.0773C16.7316 16.8167 16.7316 16.3949 16.4713 16.1346H16.4714Z" fill="white"/>
<path d="M13.2725 12.6865C13.2725 13.8948 12.4607 14.7066 11.2524 14.7066C10.8841 14.7066 10.5857 14.4082 10.5855 14.0399C10.5855 13.6716 10.8839 13.3732 11.2522 13.3732C11.572 13.3732 11.939 13.2949 11.939 12.6865V8.60583C11.939 8.23753 12.2373 7.93918 12.6056 7.93918C12.9739 7.93918 13.2723 8.23753 13.2723 8.60583L13.2725 12.6865Z" fill="white"/>
<path d="M5.20003 22.6664H7.39383L7.39387 22.6667C7.76219 22.6667 8.06092 22.965 8.06092 23.3333C8.06092 23.7016 7.76256 24 7.39426 24H5.20007C2.33285 24 9.5912e-05 21.6672 9.5912e-05 18.8001V15.3943C9.5912e-05 15.026 0.298457 14.7276 0.66676 14.7276C1.03506 14.7276 1.33342 15.026 1.33342 15.3943V18.8001C1.33342 20.9321 3.06799 22.6664 5.20003 22.6664Z" fill="white"/>
<path d="M18.8 9.55478e-05H16.6058C16.2375 9.55478e-05 15.9391 0.298453 15.9391 0.666753C15.9391 1.03505 16.2375 1.33341 16.6058 1.33341H18.8C20.9319 1.33341 22.6666 3.06777 22.6666 5.19998V8.60598C22.6666 8.97427 22.9649 9.27263 23.3332 9.27263C23.7015 9.27263 23.9999 8.97427 23.9999 8.60598V5.19998C23.9999 2.33283 21.6672 4.79555e-05 18.7999 4.79555e-05L18.8 9.55478e-05Z" fill="white"/>
<path d="M22.6666 15.3942C22.6666 15.0259 22.965 14.7275 23.3333 14.7275L23.3333 14.7273C23.7016 14.7273 24 15.0256 24 15.3939V18.7997C24 21.6671 21.6672 23.9997 18.8 23.9997H16.6058C16.2375 23.9997 15.9392 23.7013 15.9392 23.333C15.9392 22.9647 16.2375 22.6663 16.6058 22.6663H18.8C20.9319 22.6663 22.6666 20.932 22.6666 18.8V15.3942Z" fill="white"/>
</svg>
