<svg width="25" height="24" viewBox="0 0 25 24" fill="none" xmlns="http://www.w3.org/2000/svg">
<path fill-rule="evenodd" clip-rule="evenodd" d="M2.75 6C2.75 4.89543 3.64543 4 4.75 4H20.75C21.8546 4 22.75 4.89543 22.75 6V18C22.75 19.1046 21.8546 20 20.75 20H4.75C3.64543 20 2.75 19.1046 2.75 18V6ZM20.75 6L4.75 6V18L20.75 18V6Z" fill="white"/>
<path fill-rule="evenodd" clip-rule="evenodd" d="M6.75 15C6.75 14.4477 7.19772 14 7.75 14H11.75C12.3023 14 12.75 14.4477 12.75 15C12.75 15.5523 12.3023 16 11.75 16H7.75C7.19772 16 6.75 15.5523 6.75 15Z" fill="white"/>
<path fill-rule="evenodd" clip-rule="evenodd" d="M2.75 11C2.75 10.4477 3.19772 10 3.75 10H21.75C22.3023 10 22.75 10.4477 22.75 11C22.75 11.5523 22.3023 12 21.75 12H3.75C3.19772 12 2.75 11.5523 2.75 11Z" fill="white"/>
<path fill-rule="evenodd" clip-rule="evenodd" d="M2.75 9C2.75 8.44772 3.19772 8 3.75 8H21.75C22.3023 8 22.75 8.44772 22.75 9C22.75 9.55228 22.3023 10 21.75 10H3.75C3.19772 10 2.75 9.55228 2.75 9Z" fill="white"/>
</svg>
