<svg width="64" height="64" viewBox="0 0 64 64" fill="none" xmlns="http://www.w3.org/2000/svg">
<path fill-rule="evenodd" clip-rule="evenodd" d="M26.9486 7.19373C29.8595 4.71309 34.1408 4.71309 37.0517 7.19373L40.3076 9.96839C40.7008 10.3034 41.1896 10.5059 41.7046 10.547L45.9688 10.8873C49.7812 11.1916 52.8085 14.2189 53.1128 18.0313L53.4531 22.2955C53.4941 22.8105 53.6966 23.2993 54.0317 23.6925L56.8064 26.9484C59.287 29.8593 59.287 34.1406 56.8064 37.0515L54.0317 40.3074C53.6966 40.7005 53.4941 41.1894 53.4531 41.7043L53.1128 45.9686C52.8085 49.781 49.7812 52.8083 45.9688 53.1125L41.7046 53.4528C41.1896 53.4939 40.7008 53.6964 40.3076 54.0314L37.0517 56.8061C34.1408 59.2867 29.8595 59.2867 26.9486 56.8061L23.6927 54.0314C23.2996 53.6964 22.8107 53.4939 22.2958 53.4528L18.0315 53.1125C14.2191 52.8083 11.1918 49.7809 10.8876 45.9686L10.5473 41.7043C10.5062 41.1894 10.3037 40.7005 9.96863 40.3074L7.19397 37.0515C4.71334 34.1406 4.71334 29.8593 7.19397 26.9484L9.96863 23.6925C10.3037 23.2993 10.5062 22.8105 10.5473 22.2955L10.8876 18.0313C11.1918 14.2189 14.2191 11.1916 18.0315 10.8873L22.2958 10.547C22.8107 10.5059 23.2996 10.3034 23.6927 9.96839L26.9486 7.19373ZM33.5924 11.253C32.6749 10.4711 31.3254 10.4711 30.4079 11.253L27.152 14.0277C25.9046 15.0907 24.3537 15.7331 22.72 15.8635L18.4558 16.2038C17.2541 16.2996 16.2999 17.2539 16.204 18.4555L15.8637 22.7198C15.7333 24.3535 15.0909 25.9044 14.0279 27.1518L11.2533 30.4077C10.4714 31.3252 10.4714 32.6747 11.2533 33.5922L14.0279 36.8481C15.0909 38.0954 15.7333 39.6464 15.8637 41.2801L16.204 45.5443C16.2999 46.746 17.2541 47.7002 18.4558 47.7961L22.72 48.1364C24.3537 48.2667 25.9046 48.9092 27.152 49.9722L30.4079 52.7468C31.3254 53.5287 32.6749 53.5287 33.5924 52.7468L36.8483 49.9722C38.0957 48.9092 39.6466 48.2667 41.2803 48.1364L45.5446 47.7961C46.7462 47.7002 47.7004 46.746 47.7963 45.5443L48.1366 41.2801C48.267 39.6464 48.9094 38.0954 49.9724 36.8481L52.7471 33.5922C53.529 32.6747 53.529 31.3252 52.7471 30.4077L49.9724 27.1518C48.9094 25.9044 48.267 24.3535 48.1366 22.7198L47.7963 18.4555C47.7004 17.2539 46.7462 16.2996 45.5446 16.2038L41.2803 15.8635C39.6466 15.7331 38.0957 15.0907 36.8483 14.0277L33.5924 11.253Z" fill="white"/>
<path fill-rule="evenodd" clip-rule="evenodd" d="M41.8858 24.781C42.9272 25.8224 42.9272 27.5109 41.8858 28.5523L31.2191 39.219C30.1777 40.2603 28.4893 40.2603 27.4479 39.219L22.1145 33.8856C21.0731 32.8442 21.0731 31.1558 22.1145 30.1144C23.1559 29.073 24.8444 29.073 25.8858 30.1144L29.3335 33.5621L38.1145 24.781C39.1559 23.7397 40.8444 23.7397 41.8858 24.781Z" fill="white"/>
</svg>
