<svg width="32" height="64" viewBox="0 0 32 64" fill="none" xmlns="http://www.w3.org/2000/svg">
<path d="M16.0398 31.4795C15.3114 31.4795 14.8432 32.0524 14.8432 32.7295C14.8952 36.4795 14.3749 40.0732 13.3863 43.7191C13.1782 44.292 13.4383 45.3337 14.531 45.3337C15.1033 45.3337 15.5716 45.0212 15.7277 44.4482C16.4561 41.9482 17.2886 37.9378 17.2886 32.7295C17.2886 32.0524 16.7162 31.4795 16.0398 31.4795ZM15.9878 27.2607C12.762 27.2607 10.5767 29.7087 10.6287 32.5212C10.6287 35.0212 10.4206 37.5212 9.9003 39.917C9.74421 40.542 10.2125 41.2712 10.8889 41.4274C11.5132 41.5316 12.1896 41.1149 12.3457 40.4378C12.918 37.8337 13.1262 35.1774 13.1262 32.5212C13.0741 31.1149 14.1147 29.7607 15.9358 29.7607C17.5487 29.7607 18.9015 31.0628 18.9535 32.6253C18.9535 35.0732 18.7974 37.6774 18.3812 40.1253C18.2771 40.7503 18.7454 41.4274 19.4218 41.5316C20.4624 41.7399 20.8266 40.7503 20.8266 40.542C21.2949 37.9378 21.451 35.2295 21.451 32.6253C21.3989 29.7087 18.9535 27.3128 15.9878 27.2607ZM10.2125 26.2191C9.69218 25.8024 8.91173 25.8545 8.44346 26.3753C7.14271 28.042 6.41429 30.1253 6.46632 32.2087C6.46632 34.1878 6.31023 36.167 5.99805 38.042C5.84196 38.7191 6.31023 39.3962 6.98662 39.5003C8.02722 39.7087 8.39143 38.7191 8.39143 38.5107C8.75564 36.4274 8.91173 34.292 8.91173 32.2087C8.91173 30.6462 9.43203 29.1878 10.3686 27.9899C10.8368 27.417 10.7328 26.6357 10.2125 26.2191ZM15.8838 22.9899C15.1033 22.9378 14.3229 23.042 13.5424 23.2503C12.866 23.3545 12.4498 24.0316 12.6059 24.7607C12.762 25.3857 13.3863 25.8024 14.0627 25.6462C14.6871 25.542 15.2594 25.4378 15.8838 25.4899C19.786 25.542 23.0639 28.667 23.1159 32.4691C23.1159 34.4482 23.0119 36.3753 22.8037 38.4066C22.7517 39.0837 23.22 39.6566 23.8964 39.7607C24.7809 39.8128 25.2492 39.1357 25.3012 38.667C25.5093 36.5837 25.6134 34.5003 25.6134 32.417C25.5093 27.3128 21.1908 23.042 15.8838 22.9899ZM29.0473 29.292C28.8913 28.667 28.2149 28.1982 27.5385 28.3545C26.9141 28.5107 26.4458 29.1357 26.6019 29.8128C26.8101 30.9587 26.8621 31.792 26.8101 33.042C26.8101 33.7191 27.3824 34.292 28.0588 34.292C28.7352 34.292 29.3075 33.7712 29.3075 33.042C29.3595 31.8962 29.3595 30.7503 29.0473 29.292ZM26.9141 24.5524C24.3646 20.9587 20.2022 18.7712 15.7797 18.667C12.1896 18.667 8.80767 19.9691 6.31023 22.4691C3.91685 24.917 2.6161 28.0941 2.66813 31.5316V32.6774C2.66813 33.3545 3.24046 33.9274 3.91685 33.9274C3.91685 33.9274 3.91685 33.9274 3.96888 33.9274C4.59324 33.9274 5.16557 33.4066 5.16557 32.7295V31.4795C5.16557 28.7712 6.20617 26.167 8.13128 24.2399C10.1605 22.2607 12.866 21.167 15.8317 21.2191C19.4218 21.2191 22.8037 23.042 24.8849 26.0107C25.3012 26.5837 26.0816 26.6878 26.654 26.3232C27.1743 25.9066 27.3304 25.1253 26.9141 24.5524Z" fill="#333333"/>
</svg>
