<svg width="32" height="32" viewBox="0 0 32 32" fill="none" xmlns="http://www.w3.org/2000/svg">
<path fill-rule="evenodd" clip-rule="evenodd" d="M17.3333 24.0002L6.66668 24.0002C5.9303 24.0002 5.33334 23.4032 5.33334 22.6668C5.33334 21.9305 5.9303 21.3335 6.66668 21.3335L17.3333 21.3335C18.0697 21.3335 18.6667 21.9304 18.6667 22.6668C18.6667 23.4032 18.0697 24.0002 17.3333 24.0002Z" fill="white"/>
<path fill-rule="evenodd" clip-rule="evenodd" d="M5.33334 15.9998C5.33334 15.2635 5.9303 14.6665 6.66668 14.6665H25.3333C26.0697 14.6665 26.6667 15.2635 26.6667 15.9998C26.6667 16.7362 26.0697 17.3332 25.3333 17.3332H6.66668C5.9303 17.3332 5.33334 16.7362 5.33334 15.9998Z" fill="white"/>
<path fill-rule="evenodd" clip-rule="evenodd" d="M5.33334 9.33333C5.33334 8.59695 5.9303 8 6.66668 8L17.3333 8C18.0697 8 18.6667 8.59695 18.6667 9.33333C18.6667 10.0697 18.0697 10.6667 17.3333 10.6667L6.66668 10.6667C5.9303 10.6667 5.33334 10.0697 5.33334 9.33333Z" fill="white"/>
</svg>
