<svg width="25" height="24" viewBox="0 0 25 24" fill="none" xmlns="http://www.w3.org/2000/svg">
<path fill-rule="evenodd" clip-rule="evenodd" d="M5.75 21C5.75 20.4477 6.19772 20 6.75 20H18.75C19.3023 20 19.75 20.4477 19.75 21C19.75 21.5523 19.3023 22 18.75 22H6.75C6.19772 22 5.75 21.5523 5.75 21Z" fill="white"/>
<path fill-rule="evenodd" clip-rule="evenodd" d="M12.75 2C13.3023 2 13.75 2.44772 13.75 3L13.75 17C13.75 17.5523 13.3023 18 12.75 18C12.1977 18 11.75 17.5523 11.75 17L11.75 3C11.75 2.44772 12.1977 2 12.75 2Z" fill="white"/>
<path fill-rule="evenodd" clip-rule="evenodd" d="M7.04289 11.2929C7.43342 10.9024 8.06658 10.9024 8.45711 11.2929L12.75 15.5858L17.0429 11.2929C17.4334 10.9024 18.0666 10.9024 18.4571 11.2929C18.8476 11.6834 18.8476 12.3166 18.4571 12.7071L13.4571 17.7071C13.2696 17.8946 13.0152 18 12.75 18C12.4848 18 12.2304 17.8946 12.0429 17.7071L7.04289 12.7071C6.65237 12.3166 6.65237 11.6834 7.04289 11.2929Z" fill="white"/>
</svg>
