<svg width="32" height="32" viewBox="0 0 32 32" fill="none" xmlns="http://www.w3.org/2000/svg">
<path fill-rule="evenodd" clip-rule="evenodd" d="M24 26.6663C24 25.93 24.597 25.333 25.3333 25.333H26.6667C27.403 25.333 28 25.93 28 26.6663C28 27.4027 27.403 27.9997 26.6667 27.9997H25.3333C24.597 27.9997 24 27.4027 24 26.6663Z" fill="#333333"/>
<path fill-rule="evenodd" clip-rule="evenodd" d="M17.3333 26.6663C17.3333 25.93 17.9303 25.333 18.6666 25.333H21.3333C22.0697 25.333 22.6666 25.93 22.6666 26.6663C22.6666 27.4027 22.0697 27.9997 21.3333 27.9997H18.6666C17.9303 27.9997 17.3333 27.4027 17.3333 26.6663Z" fill="#333333"/>
<path fill-rule="evenodd" clip-rule="evenodd" d="M21.3333 22.6663C21.3333 21.93 21.9303 21.333 22.6666 21.333L26.6666 21.333C27.403 21.333 28 21.93 28 22.6663C28 23.4027 27.403 23.9997 26.6666 23.9997L22.6666 23.9997C21.9303 23.9997 21.3333 23.4027 21.3333 22.6663Z" fill="#333333"/>
<path fill-rule="evenodd" clip-rule="evenodd" d="M18.6666 21.333C19.403 21.333 20 21.93 20 22.6663V26.6663C20 27.4027 19.403 27.9997 18.6666 27.9997C17.9303 27.9997 17.3333 27.4027 17.3333 26.6663L17.3333 22.6663C17.3333 21.93 17.9303 21.333 18.6666 21.333Z" fill="#333333"/>
<path fill-rule="evenodd" clip-rule="evenodd" d="M26.6666 17.333C27.403 17.333 28 17.93 28 18.6663V22.6663C28 23.4027 27.403 23.9997 26.6666 23.9997C25.9303 23.9997 25.3333 23.4027 25.3333 22.6663L25.3333 18.6663C25.3333 17.93 25.9303 17.333 26.6666 17.333Z" fill="#333333"/>
<path fill-rule="evenodd" clip-rule="evenodd" d="M24 18.6663C24 17.93 24.597 17.333 25.3333 17.333L26.6667 17.333C27.403 17.333 28 17.93 28 18.6663C28 19.4027 27.403 19.9997 26.6667 19.9997L25.3333 19.9997C24.597 19.9997 24 19.4027 24 18.6663Z" fill="#333333"/>
<path fill-rule="evenodd" clip-rule="evenodd" d="M17.3333 18.6663C17.3333 17.93 17.9303 17.333 18.6666 17.333H21.3333C22.0697 17.333 22.6666 17.93 22.6666 18.6663C22.6666 19.4027 22.0697 19.9997 21.3333 19.9997H18.6666C17.9303 19.9997 17.3333 19.4027 17.3333 18.6663Z" fill="#333333"/>
<path fill-rule="evenodd" clip-rule="evenodd" d="M4 19.9997C4 18.5269 5.19391 17.333 6.66667 17.333H12C13.4728 17.333 14.6667 18.5269 14.6667 19.9997V25.333C14.6667 26.8058 13.4728 27.9997 12 27.9997H6.66667C5.19391 27.9997 4 26.8058 4 25.333V19.9997ZM12 19.9997H6.66667V25.333H12V19.9997Z" fill="#333333"/>
<path fill-rule="evenodd" clip-rule="evenodd" d="M17.3333 6.66667C17.3333 5.19391 18.5272 4 20 4H25.3333C26.8061 4 28 5.19391 28 6.66667V12C28 13.4728 26.8061 14.6667 25.3333 14.6667H20C18.5272 14.6667 17.3333 13.4728 17.3333 12V6.66667ZM25.3333 6.66667H20V12H25.3333V6.66667Z" fill="#333333"/>
<path fill-rule="evenodd" clip-rule="evenodd" d="M4 6.66667C4 5.19391 5.19391 4 6.66667 4H12C13.4728 4 14.6667 5.19391 14.6667 6.66667V12C14.6667 13.4728 13.4728 14.6667 12 14.6667H6.66667C5.19391 14.6667 4 13.4728 4 12V6.66667ZM12 6.66667H6.66667V12H12V6.66667Z" fill="#333333"/>
</svg>
