<svg width="25" height="24" viewBox="0 0 25 24" fill="none" xmlns="http://www.w3.org/2000/svg">
<path fill-rule="evenodd" clip-rule="evenodd" d="M16.1109 8.1386C16.5014 8.52912 16.5014 9.16229 16.1109 9.55281L11.2647 14.399C10.8742 14.7895 10.241 14.7895 9.85051 14.399C9.45999 14.0084 9.45999 13.3753 9.85051 12.9848L14.6967 8.1386C15.0872 7.74807 15.7204 7.74807 16.1109 8.1386Z" fill="white"/>
<path fill-rule="evenodd" clip-rule="evenodd" d="M19.1507 2.60012C20.6853 2.12795 22.1227 3.5653 21.6505 5.09985L16.7861 20.909C16.2555 22.6335 13.8926 22.8291 13.0857 21.2152L9.73561 14.515L3.03538 11.1649C1.42155 10.358 1.6171 7.99509 3.34163 7.46447L19.1507 2.60012ZM19.7389 4.51168L3.92981 9.37602L10.63 12.7261C11.0171 12.9197 11.3309 13.2335 11.5245 13.6206L14.8746 20.3208L19.7389 4.51168Z" fill="white"/>
</svg>
