<svg width="366" height="367" viewBox="0 0 366 367" fill="none" xmlns="http://www.w3.org/2000/svg">
<circle opacity="0.1" cx="183" cy="183.5" r="183" fill="white"/>
<circle opacity="0.15" cx="183" cy="184" r="145" fill="white"/>
<circle opacity="0.2" cx="183" cy="184" r="116" fill="white"/>
<path d="M141.925 156V167.999L167.1 146.666C167.101 146.667 155.176 153.333 141.925 156Z" fill="white"/>
<path d="M141.925 185.333L192.275 144L192.275 144C197.466 147.917 202.655 149.276 202.868 149.332C202.872 149.333 202.875 149.333 202.875 149.333L147.225 196C143.25 190.666 141.925 185.333 141.925 185.333Z" fill="white"/>
<path d="M155.175 209.333C157.825 213.333 163.125 218.666 163.125 218.666L224.075 168V154.667L155.175 209.333Z" fill="white"/>
<path d="M183 231.999C179.025 230.666 175.05 226.666 175.05 226.666L222.75 187.999C212.15 214.666 183 231.999 183 231.999Z" fill="white"/>
<path fill-rule="evenodd" clip-rule="evenodd" d="M183 124C183 124 155.175 145.334 130 145.334V181.334C130 181.334 132.65 222.667 183 244C183 244 228.05 228 236 181.334V145.334C236 145.334 209.5 145.334 183 124ZM226.725 184C218.775 218.666 183 234.666 183 234.666C145.9 217.333 139.275 184 139.275 184V153.333C159.15 150.667 183 133.333 183 133.333C201.55 149.333 226.725 153.333 226.725 153.333V184Z" fill="white"/>
</svg>
