<svg width="25" height="24" viewBox="0 0 25 24" fill="none" xmlns="http://www.w3.org/2000/svg">
<path fill-rule="evenodd" clip-rule="evenodd" d="M15.5429 12.2929C15.9334 11.9024 16.5666 11.9024 16.9571 12.2929L19.9571 15.2929C20.1446 15.4804 20.25 15.7348 20.25 16C20.25 16.2652 20.1446 16.5196 19.9571 16.7071L16.9571 19.7071C16.5666 20.0976 15.9334 20.0976 15.5429 19.7071C15.1524 19.3166 15.1524 18.6834 15.5429 18.2929L17.8358 16L15.5429 13.7071C15.1524 13.3166 15.1524 12.6834 15.5429 12.2929Z" fill="white"/>
<path fill-rule="evenodd" clip-rule="evenodd" d="M4.25 16C4.25 15.4477 4.69772 15 5.25 15H19.25C19.8023 15 20.25 15.4477 20.25 16C20.25 16.5523 19.8023 17 19.25 17H5.25C4.69772 17 4.25 16.5523 4.25 16Z" fill="white"/>
<path fill-rule="evenodd" clip-rule="evenodd" d="M8.95711 4.29289C9.34763 4.68342 9.34763 5.31658 8.95711 5.70711L6.66421 8L8.95711 10.2929C9.34763 10.6834 9.34763 11.3166 8.95711 11.7071C8.56658 12.0976 7.93342 12.0976 7.54289 11.7071L4.54289 8.70711C4.15237 8.31658 4.15237 7.68342 4.54289 7.29289L7.54289 4.29289C7.93342 3.90237 8.56658 3.90237 8.95711 4.29289Z" fill="white"/>
<path fill-rule="evenodd" clip-rule="evenodd" d="M5.25 7L19.25 7C19.8023 7 20.25 7.44772 20.25 8C20.25 8.55228 19.8023 9 19.25 9L5.25 9C4.69772 9 4.25 8.55229 4.25 8C4.25 7.44772 4.69772 7 5.25 7Z" fill="white"/>
</svg>
