<svg width="32" height="64" viewBox="0 0 32 64" fill="none" xmlns="http://www.w3.org/2000/svg">
<path fill-rule="evenodd" clip-rule="evenodd" d="M7.05715 23.0575C7.57785 22.5368 8.42207 22.5368 8.94277 23.0575L24.9427 39.0575C25.4634 39.5782 25.4634 40.4224 24.9427 40.9431C24.422 41.4638 23.5778 41.4638 23.0571 40.9431L7.05715 24.9431C6.53645 24.4224 6.53645 23.5782 7.05715 23.0575Z" fill="#333333"/>
<path fill-rule="evenodd" clip-rule="evenodd" d="M24.9428 23.0575C25.4635 23.5782 25.4635 24.4224 24.9428 24.9431L8.94277 40.9432C8.42207 41.4639 7.57785 41.4639 7.05715 40.9432C6.53645 40.4225 6.53645 39.5783 7.05715 39.0576L23.0572 23.0575C23.5779 22.5368 24.4221 22.5368 24.9428 23.0575Z" fill="#333333"/>
</svg>
